<svg width="170" height="83" viewBox="0 0 170 83" fill="none" xmlns="http://www.w3.org/2000/svg">
<path d="M15.9365 20.6876C14.3486 22.1657 12.3181 22.9047 9.84485 22.9047C6.78457 22.9047 4.3787 21.9063 2.62722 19.9095C0.87574 17.9028 0 15.1523 0 11.6579C0 7.87959 0.996032 4.96756 2.98811 2.92181C4.72034 1.14034 6.92411 0.249602 9.59944 0.249602C13.1794 0.249602 15.797 1.44378 17.4522 3.83211C18.3665 5.17313 18.8573 6.51903 18.9246 7.86982H14.4786C14.1899 6.83226 13.8193 6.04919 13.3671 5.52062C12.5587 4.58094 11.3606 4.1111 9.77266 4.1111C8.15591 4.1111 6.88081 4.77671 5.94731 6.10792C5.01385 7.42933 4.54712 9.3038 4.54712 11.7313C4.54712 14.1588 5.0379 15.9794 6.0195 17.1932C7.01073 18.3971 8.26659 18.9991 9.78711 18.9991C11.3461 18.9991 12.5346 18.4804 13.3526 17.4428C13.8049 16.8848 14.1802 16.0479 14.4786 14.9321H18.8813C18.4964 17.2911 17.5148 19.2096 15.9365 20.6876ZM33.563 17.8539H25.7248L24.2524 22.3027H19.6043L27.1972 0.660712H32.2207L39.7559 22.3027H34.9346L33.563 17.8539ZM32.3217 14.1245L29.6656 5.6087L26.9229 14.1245H32.3217ZM41.2871 0.660712H45.7333V18.4118H56.2711V22.3027H41.2871V0.660712ZM57.8312 0.660712H62.2481V22.3027H57.8312V0.660712ZM80.308 4.49283H69.6402V9.47019H78.9798V13.2289H69.6402V22.3027H65.223V0.690077H80.308V4.49283ZM91.5252 22.9047C88.4841 22.9047 86.1603 22.0629 84.5531 20.3793C82.3975 18.3139 81.3196 15.3383 81.3196 11.4523C81.3196 7.48806 82.3975 4.51241 84.5531 2.52539C86.1603 0.841794 88.4841 0 91.5252 0C94.5662 0 96.8903 0.841794 98.4975 2.52539C100.644 4.51241 101.717 7.48806 101.717 11.4523C101.717 15.3383 100.644 18.3139 98.4975 20.3793C96.8903 22.0629 94.5662 22.9047 91.5252 22.9047ZM95.7259 17.0904C96.7557 15.769 97.2706 13.8896 97.2706 11.4523C97.2706 9.02484 96.7508 7.15037 95.7115 5.82893C94.6817 4.49772 93.2863 3.83211 91.5252 3.83211C89.7643 3.83211 88.3591 4.49283 87.3102 5.81427C86.2613 7.13568 85.7369 9.01504 85.7369 11.4523C85.7369 13.8896 86.2613 15.769 87.3102 17.0904C88.3591 18.4118 89.7643 19.0725 91.5252 19.0725C93.2863 19.0725 94.6866 18.4118 95.7259 17.0904ZM112.977 13.8162H108.387V22.3027H104.042V0.660712H114.478C115.97 0.690077 117.115 0.876055 117.914 1.21865C118.723 1.56124 119.406 2.06534 119.964 2.73094C120.426 3.27908 120.791 3.88596 121.061 4.55156C121.33 5.21717 121.465 5.97577 121.465 6.82737C121.465 7.85513 121.21 8.86823 120.7 9.86664C120.19 10.8552 119.348 11.5551 118.174 11.9662C119.156 12.3675 119.848 12.9402 120.252 13.6841C120.666 14.4182 120.873 15.5439 120.873 17.061V18.5146C120.873 19.5032 120.912 20.1737 120.989 20.5261C121.104 21.0841 121.374 21.4952 121.797 21.7594V22.3027H116.904C116.769 21.8231 116.673 21.4364 116.615 21.1428C116.499 20.5359 116.437 19.9143 116.427 19.2781L116.398 17.2666C116.379 15.8864 116.129 14.9663 115.648 14.5063C115.176 14.0462 114.286 13.8162 112.977 13.8162ZM115.677 9.88133C116.562 9.47019 117.005 8.65777 117.005 7.44402C117.005 6.13238 116.576 5.25143 115.72 4.80117C115.239 4.54668 114.517 4.41941 113.555 4.41941H108.387V10.2337H113.425C114.426 10.2337 115.176 10.1162 115.677 9.88133ZM141.329 22.3027H136.883L128.193 6.93014V22.3027H124.05V0.660712H128.713L137.186 15.769V0.660712H141.329V22.3027ZM143.958 0.660712H148.375V22.3027H143.958V0.660712ZM163.807 17.8539H155.969L154.496 22.3027H149.848L157.441 0.660712H162.465L170 22.3027H165.179L163.807 17.8539ZM162.566 14.1245L159.91 5.6087L157.167 14.1245H162.566ZM93.5173 30.7304H98.0356L92.045 52.3724H87.8011L85.2315 39.7162L84.4808 35.5315L83.7303 39.7162L81.1607 52.3724H77.0323L70.9983 30.7304H75.7186L78.5336 43.1225L79.1399 46.5727L79.7605 43.1958L82.157 30.7304H86.8483L89.3744 43.1225L90.0239 46.5727L90.6737 43.2547L93.5173 30.7304ZM110.393 47.9237H102.555L101.082 52.3724H96.4345L104.027 30.7304H109.051L116.586 52.3724H111.765L110.393 47.9237ZM109.152 44.1944L106.496 35.6784L103.753 44.1944H109.152ZM131.383 30.7304V34.5627H125.017V52.3724H120.543V34.5627H114.148V30.7304H131.383ZM147.624 42.9167H137.288V48.4815H149.068V52.3724H132.943V30.7304H148.548V34.5627H137.288V39.158H147.624V42.9167ZM160.386 43.8859H155.796V52.3724H151.451V30.7304H161.887C163.379 30.7598 164.524 30.9458 165.323 31.2885C166.132 31.6309 166.815 32.1352 167.373 32.8008C167.835 33.3489 168.2 33.9557 168.47 34.6213C168.739 35.2869 168.874 36.0455 168.874 36.8972C168.874 37.9249 168.619 38.9378 168.109 39.9364C167.599 40.9249 166.757 41.625 165.583 42.0359C166.564 42.4372 167.257 43.0098 167.661 43.7537C168.075 44.4879 168.282 45.6136 168.282 47.1309V48.5843C168.282 49.5728 168.321 50.2434 168.398 50.5958C168.513 51.1537 168.783 51.5649 169.206 51.8293V52.3724H164.312C164.178 51.8929 164.081 51.506 164.024 51.2125C163.908 50.6055 163.846 49.9841 163.836 49.3479L163.807 47.3364C163.788 45.9563 163.538 45.036 163.057 44.5759C162.585 44.1161 161.695 43.8859 160.386 43.8859ZM163.086 39.9511C163.971 39.5398 164.413 38.7277 164.413 37.5136C164.413 36.2021 163.985 35.321 163.129 34.8709C162.648 34.6162 161.926 34.4891 160.963 34.4891H155.796V40.3035H160.833C161.834 40.3035 162.585 40.186 163.086 39.9511ZM21.8919 60.8001H26.3091V82.4421H21.8919V60.8001ZM47.3778 82.4421H42.9315L34.2414 67.0696V82.4421H30.0987V60.8001H34.7613L43.2349 75.9086V60.8001H47.3778V82.4421ZM58.9623 79.3149C60.0112 79.3149 60.863 79.1974 61.5174 78.9625C62.7587 78.5121 63.3796 77.6752 63.3796 76.4517C63.3796 75.7372 63.0716 75.1841 62.4557 74.7925C61.8398 74.4107 60.8725 74.0731 59.5542 73.7796L57.3021 73.2656C55.0889 72.7566 53.5587 72.2034 52.7118 71.6064C51.278 70.6081 50.5611 69.0467 50.5611 66.9227C50.5611 64.9848 51.2539 63.3745 52.6397 62.0921C54.0255 60.8101 56.0608 60.1689 58.7458 60.1689C60.988 60.1689 62.8982 60.7757 64.4765 61.9894C66.0643 63.1934 66.8967 64.9456 66.9737 67.2457H62.7008C62.6239 65.9439 62.0658 65.0189 61.0265 64.4708C60.3336 64.1087 59.4723 63.9277 58.4425 63.9277C57.2975 63.9277 56.3832 64.1626 55.6999 64.6324C55.0165 65.1022 54.675 65.7578 54.675 66.5998C54.675 67.3731 55.0119 67.9504 55.6854 68.3322C56.1184 68.5869 57.0422 68.8854 58.457 69.2278L62.1234 70.1236C63.7306 70.5151 64.9433 71.0388 65.7613 71.6947C67.0316 72.7127 67.6666 74.1858 67.6666 76.114C67.6666 78.0911 66.921 79.7356 65.4293 81.0473C63.9471 82.3491 61.8493 83 59.1354 83C56.3638 83 54.1841 82.3588 52.5963 81.0768C51.0085 79.7847 50.2146 78.0128 50.2146 75.7617H54.4585C54.5931 76.7502 54.8579 77.4894 55.2524 77.9787C55.9742 78.8695 57.2107 79.3149 58.9623 79.3149ZM86.1224 60.8001V64.6324H79.7565V82.4421H75.2816V64.6324H68.8867V60.8001H86.1224ZM88.093 60.8001H92.5103V82.4421H88.093V60.8001ZM111.832 60.8001V64.6324H105.466V82.4421H100.991V64.6324H94.5967V60.8001H111.832ZM126.737 74.1025V60.8001H131.255V74.1025C131.255 76.4028 130.904 78.1942 130.201 79.4762C128.893 81.8254 126.395 83 122.71 83C119.024 83 116.522 81.8254 115.203 79.4762C114.501 78.1942 114.149 76.4028 114.149 74.1025V60.8001H118.668V74.1025C118.668 75.5903 118.841 76.6769 119.187 77.3619C119.726 78.5757 120.9 79.1827 122.71 79.1827C124.509 79.1827 125.678 78.5757 126.217 77.3619C126.564 76.6769 126.737 75.5903 126.737 74.1025ZM150.678 60.8001V64.6324H144.312V82.4421H139.837V64.6324H133.442V60.8001H150.678ZM167.806 72.9865H157.47V78.5512H169.249V82.4421H153.125V60.8001H168.73V64.6324H157.47V69.2278H167.806V72.9865Z" fill="#122749"/>
</svg>
